<?xml version="1.0" encoding="utf-8"?>
<!-- Generator: Adobe Illustrator 22.1.0, SVG Export Plug-In . SVG Version: 6.00 Build 0)  -->
<svg version="1.1" id="Слой_1" xmlns="http://www.w3.org/2000/svg" xmlns:xlink="http://www.w3.org/1999/xlink" x="0px" y="0px"
	 viewBox="0 0 85 85" style="enable-background:new 0 0 85 85;" xml:space="preserve">
<style type="text/css">
	.st0{fill:#665AA4;}
</style>
<g>
	<path class="st0" d="M69.1,17.3c3.1,2.7,5.3,6.9,6.7,12.6c1.3,6.1,1.5,13.6,0.4,22.3c-0.9,6.9-3.4,12.1-7.8,15.7
		c-2.4,1.9-5.4,3.3-9.2,4.3l-0.9,0.1c-1.4,0.5-3.7,0.9-6.8,1.3c-4.9,0.7-9.8,0.8-14.7,0.4c-2,2.2-3.4,3.7-4.3,4.7L31.4,80
		c-1,1.1-1.8,1.9-2.3,2.3c-0.9,0.6-1.7,0.7-2.7,0.4c-0.6-0.2-1-0.5-1.2-1.1c-0.2-0.5-0.4-1.1-0.5-1.6v-8.2c-5.2-1.4-9.2-4.2-12-8.2
		c-2.1-3.2-3.4-7.3-4.1-12.2C8.2,48.5,8,44.7,8.2,40c0.1-5,0.7-9.3,1.7-12.8c1.1-3.9,2.9-7,5.4-9.5c2.2-2,5-3.6,8.5-4.8
		c2.7-0.9,5.9-1.7,9.4-2.1c2.5-0.4,5-0.6,7.5-0.6h3.1c7,0.1,13,1.1,18.1,3C65,14.4,67.4,15.8,69.1,17.3z M71.1,50.9
		c0.9-7.4,0.9-13.7-0.3-19c-1-5-2.9-8.6-5.5-10.9c-1.3-1.2-3.4-2.3-6.2-3.3c-4.4-1.5-9.6-2.3-15.6-2.4h-2.7c-2.2,0-4.3,0.1-6.4,0.4
		c-2.9,0.4-5.6,0.9-7.9,1.7c-2.9,1-5.3,2.4-7.1,4.1c-2.1,2-3.6,4.6-4.7,7.9c-0.9,2.9-1.3,6.5-1.4,10.6V41c-0.1,4.1,0,7.2,0.3,9.5
		c0.6,4,1.7,7.3,3.4,9.9c2.3,3.2,5.5,5.4,9.8,6.7l-0.1,12.2c0,0.7,0.2,1.1,0.5,1.2s0.7,0,1.2-0.5c0.9-0.9,2.8-3.1,5.7-6.4l4-4.8
		c4.2,0.3,8.4,0.1,12.6-0.4c2.7-0.4,4.7-0.8,6-1.1l0.9-0.1c3-0.8,5.5-1.9,7.4-3.4C68.2,60.8,70.4,56.6,71.1,50.9z M59.4,56.9
		c0.7-1.3,0.5-2.5-0.6-3.4c-1.7-1.6-3.9-3.1-6.5-4.5c-0.7-0.5-1.3-0.6-2.1-0.5c-0.7,0.1-1.3,0.4-1.6,0.9l-1.4,1.7
		c-0.3,0.4-0.7,0.6-1.3,0.7l-0.7,0.1c-2.2-0.6-4.1-1.6-5.8-3c-1.4-1-2.6-2.4-3.7-4c-0.8-1.1-1.4-2.3-1.8-3.5l-0.6-1.6v-0.7
		c0.1-0.6,0.3-1,0.7-1.3l1.7-1.3c0.5-0.4,0.8-0.9,0.9-1.6c0.1-0.7,0-1.4-0.4-2.2c-0.8-1.3-1.5-2.5-2.1-3.4l-2.6-3.1
		c-0.9-1-2.1-1.2-3.4-0.6c-1.6,0.9-2.9,2-3.8,3.1c-1,1.5-1.4,2.9-1,4.3l0.9,1.8c0.7,1.8,1.7,3.9,3,6.2c1.3,2.3,2.7,4.5,4.3,6.4
		c1.8,2.3,3.8,4.3,6,6s4.8,3.4,7.9,5.1c2.8,1.5,5.1,2.5,6.7,3c1.3,0.5,2.7,0.1,4.3-1C57.4,59.7,58.4,58.5,59.4,56.9z M60.9,43
		c0-6-1.8-10.9-5.5-14.5c-3.5-3.5-7.9-5.2-13.3-5.2c-0.7,0-1,0.3-1,0.9c0,0.6,0.3,0.9,1,0.9c4.8,0,8.8,1.5,11.9,4.5
		c3.4,3.3,5.1,7.7,5.1,13.3c0,0.6,0.3,0.9,0.9,0.9S60.9,43.5,60.9,43z M54.3,41c0,0.7,0.3,1,0.9,1c0.6,0,0.9-0.3,0.9-0.9
		c0.1-3.6-1-6.6-3.2-9.1c-2.2-2.5-5.3-3.8-9.3-4.1c-0.6,0-0.9,0.3-0.9,0.9c0,0.6,0.2,0.9,0.8,0.9c3.5,0.3,6.2,1.5,8.1,3.5
		S54.4,38,54.3,41z M51.4,39.4c-0.2-4.2-2.3-6.3-6.4-6.5c-0.6,0-0.9,0.3-0.9,0.9c0,0.6,0.2,0.9,0.8,0.9c2.9,0.2,4.5,1.8,4.7,4.8
		c0,0.6,0.3,0.9,0.9,0.9S51.4,40.1,51.4,39.4z"/>
</g>
</svg>
