<?xml version="1.0" encoding="utf-8"?>
<!-- Generator: Adobe Illustrator 22.1.0, SVG Export Plug-In . SVG Version: 6.00 Build 0)  -->
<svg version="1.1" id="Слой_1" xmlns="http://www.w3.org/2000/svg" xmlns:xlink="http://www.w3.org/1999/xlink" x="0px" y="0px"
	 viewBox="0 0 85 85" style="enable-background:new 0 0 85 85;" xml:space="preserve">
<style type="text/css">
	.st0{fill:#44AD47;}
</style>
<g>
	<path class="st0" d="M64.8,20c3,3,5.4,6.4,7,10.3c1.7,3.8,2.5,7.8,2.5,12c0,5.7-1.4,10.9-4.3,15.7c-2.9,4.8-6.8,8.6-11.6,11.5
		c-4.9,2.8-10.1,4.3-15.8,4.3c-5.4,0-10.4-1.3-15-3.8l-16.7,4.4L15.3,58c-2.8-4.8-4.3-10.1-4.3-15.7s1.4-10.9,4.3-15.7
		c2.8-4.8,6.7-8.6,11.5-11.5c4.8-2.8,10.1-4.3,15.7-4.3c4.2,0,8.1,0.8,12,2.4C58.3,14.8,61.7,17.1,64.8,20z M42.5,68.5
		c4.7,0,9.1-1.2,13.2-3.5c4.1-2.4,7.3-5.6,9.7-9.6c2.4-4,3.6-8.4,3.6-13.1c0-3.4-0.7-6.7-2.1-9.9s-3.4-6.1-5.9-8.6
		c-2.5-2.5-5.3-4.4-8.5-5.7c-3.2-1.3-6.5-2-10-2c-4.7,0-9.1,1.2-13.1,3.5c-4,2.4-7.2,5.6-9.6,9.6c-2.4,4-3.5,8.4-3.5,13.1
		c0,5,1.4,9.6,4.1,13.9l0.6,1l-2.7,9.6l9.9-2.6l1,0.6C33.3,67.2,37.7,68.5,42.5,68.5z M56.8,48.8l0.4,0.3c0.7,0.3,1,0.5,1.1,0.7
		s0.1,0.7,0.1,1.4s-0.2,1.5-0.6,2.3c-0.3,0.8-1.1,1.6-2.3,2.4c-1.2,0.8-2.2,1.3-3,1.3c-1.3,0.2-2.6,0.2-3.8,0
		c-1.4-0.3-3.3-0.9-5.7-2c-4.8-2.1-9.2-6-13.2-11.6l-0.3-0.3c-2.1-2.9-3.1-5.6-3.1-8.1s0.9-4.6,2.6-6.4l0.1-0.1c0.7-0.7,1.4-1,2.1-1
		H33c0.4,0,0.7,0.1,0.9,0.2c0.2,0.1,0.4,0.5,0.6,1.1l2.4,5.8c0.3,0.6,0.3,1,0.1,1.4c-0.5,0.9-1.1,1.8-1.8,2.6
		c-0.4,0.4-0.6,0.7-0.7,0.9s0,0.5,0.3,0.8c1.3,2.5,2.9,4.4,4.7,5.8c1.3,1,3.3,2.2,6,3.5c0.8,0.4,1.3,0.3,1.7-0.1
		c1.2-1.4,2.1-2.5,2.6-3.1c0.2-0.4,0.4-0.6,0.7-0.6s0.6,0,1,0.1C52.2,46.5,54,47.3,56.8,48.8z"/>
</g>
</svg>
